<svg id="visual" viewBox="0 0 900 600" width="900" height="600" xmlns="http://www.w3.org/2000/svg" xmlns:xlink="http://www.w3.org/1999/xlink" version="1.1"><path d="M0 138L21.5 129.5C43 121 86 104 128.8 99C171.7 94 214.3 101 257.2 109.2C300 117.3 343 126.7 385.8 126.2C428.7 125.7 471.3 115.3 514.2 108.2C557 101 600 97 642.8 103.8C685.7 110.7 728.3 128.3 771.2 136.8C814 145.3 857 144.7 878.5 144.3L900 144L900 0L878.5 0C857 0 814 0 771.2 0C728.3 0 685.7 0 642.8 0C600 0 557 0 514.2 0C471.3 0 428.7 0 385.8 0C343 0 300 0 257.2 0C214.3 0 171.7 0 128.8 0C86 0 43 0 21.5 0L0 0Z" fill="#16337F" stroke-linecap="round" stroke-linejoin="miter"></path></svg>